{"glyphs":{"0":{"ha":748,"x_min":41,"x_max":788,"o":"m 706 385 q 563 80 664 175 q 315 -14 462 -14 q 110 89 179 -14 q 80 385 41 192 l 124 602 q 267 906 165 811 q 516 1002 368 1002 q 720 898 651 1002 q 750 602 788 794 l 706 385 m 559 623 q 564 799 584 748 q 486 849 545 849 q 388 793 431 849 q 323 623 345 738 l 271 366 q 266 188 245 239 q 345 138 286 138 q 441 193 399 138 q 508 366 484 248 l 559 623 z "},"1":{"ha":751,"x_min":196,"x_max":635,"o":"m 437 0 l 243 0 l 400 786 l 196 786 l 223 921 l 635 987 l 437 0 z "},"2":{"ha":751,"x_min":16,"x_max":758,"o":"m 648 0 l 16 0 l 37 130 l 388 472 q 499 606 464 551 q 541 707 534 661 q 528 810 551 772 q 451 849 505 849 q 354 802 393 849 q 302 679 314 755 l 113 679 l 111 683 q 230 912 130 822 q 475 1002 329 1002 q 686 921 614 1002 q 737 711 758 841 q 666 545 722 617 q 481 347 610 472 l 294 156 l 296 152 l 673 152 l 648 0 z "},"3":{"ha":751,"x_min":16,"x_max":761,"o":"m 288 531 l 296 578 l 401 578 q 497 615 460 578 q 544 718 534 652 q 530 814 553 779 q 450 849 506 849 q 365 816 404 849 q 317 731 326 783 l 127 731 l 126 735 q 240 929 142 856 q 469 1002 338 1002 q 684 927 607 1002 q 740 720 761 853 q 682 595 729 652 q 563 505 635 537 q 664 415 633 475 q 683 277 695 355 q 556 61 660 136 q 306 -14 452 -14 q 99 59 182 -14 q 40 264 16 132 l 42 269 l 232 269 q 251 173 222 209 q 335 138 280 138 q 435 176 393 138 q 488 279 477 214 q 473 395 500 360 q 378 429 446 429 l 272 429 l 288 531 z "},"4":{"ha":751,"x_min":32,"x_max":751,"o":"m 627 368 l 726 368 l 696 214 l 596 214 l 553 0 l 359 0 l 401 214 l 32 214 l 47 333 l 555 987 l 751 987 l 627 368 m 234 368 l 432 368 l 501 715 l 498 718 l 482 696 l 234 368 z "},"5":{"ha":751,"x_min":41,"x_max":768,"o":"m 109 437 l 250 987 l 768 987 l 743 829 l 385 829 l 323 601 q 388 634 351 621 q 465 648 425 648 q 659 562 600 650 q 692 317 718 474 q 574 78 669 170 q 327 -14 479 -14 q 122 61 203 -14 q 64 264 41 136 l 65 268 l 255 277 q 271 173 244 209 q 351 138 297 138 q 447 188 409 138 q 496 315 484 237 q 488 454 511 404 q 404 504 466 504 q 326 483 356 504 q 279 426 295 461 l 109 437 z "},"6":{"ha":797,"x_min":43,"x_max":769,"o":"m 560 1002 q 661 991 614 1002 q 751 960 707 980 l 694 815 q 617 839 651 831 q 538 846 584 846 q 386 779 452 846 q 304 595 319 711 l 307 591 q 398 644 344 625 q 516 663 452 663 q 706 568 643 663 q 748 329 769 473 q 618 80 724 174 q 364 -14 513 -14 q 128 93 213 -14 q 71 386 43 200 l 100 578 q 257 891 130 780 q 560 1002 385 1002 m 441 513 q 346 495 387 513 q 277 445 304 477 l 268 381 q 282 198 250 259 q 387 138 315 138 q 492 194 446 138 q 551 329 538 251 q 533 464 563 414 q 441 513 504 513 z "},"7":{"ha":751,"x_min":127,"x_max":805,"o":"m 781 835 q 526 493 602 650 q 390 100 450 335 l 364 0 l 169 0 l 195 100 q 348 500 250 319 q 593 835 446 682 l 127 835 l 151 987 l 805 987 l 781 835 z "},"8":{"ha":751,"x_min":30,"x_max":782,"o":"m 756 726 q 692 589 740 646 q 574 503 645 532 q 670 408 639 469 q 686 270 701 347 q 558 55 656 123 q 316 -14 460 -14 q 106 60 183 -14 q 57 270 30 135 q 127 417 73 356 q 263 509 182 478 q 180 598 206 542 q 169 726 154 654 q 289 934 197 866 q 517 1002 382 1002 q 711 928 641 1002 q 756 726 782 855 m 494 283 q 483 392 507 354 q 404 430 458 430 q 311 389 353 430 q 256 283 269 349 q 266 175 241 212 q 347 138 290 138 q 438 177 397 138 q 494 283 480 217 m 559 717 q 553 814 572 780 q 487 849 534 849 q 408 813 443 849 q 362 717 374 777 q 368 617 349 651 q 435 583 387 583 q 513 620 479 583 q 559 717 547 656 z "},"9":{"ha":751,"x_min":85,"x_max":764,"o":"m 306 138 q 427 196 372 138 q 499 361 481 255 l 503 387 q 423 328 467 347 q 332 309 379 309 q 146 400 208 309 q 111 649 85 492 q 239 903 136 805 q 478 1002 342 1002 q 689 897 615 1002 q 734 605 764 791 l 696 372 q 552 85 666 185 q 282 -14 438 -14 q 186 -4 237 -14 q 96 27 135 7 l 141 170 q 218 145 179 153 q 306 138 256 138 m 388 454 q 464 472 429 454 q 524 520 500 490 l 542 628 q 536 795 559 741 q 454 849 513 849 q 361 790 405 849 q 305 649 318 730 q 311 505 290 556 q 388 454 332 454 z "}," ":{"ha":330,"x_min":0,"x_max":0,"o":""},"!":{"ha":366,"x_min":30,"x_max":422,"o":"m 292 340 l 96 340 l 226 987 l 422 987 l 292 340 m 223 0 l 30 0 l 64 174 l 258 174 l 223 0 z "},"\"":{"ha":427,"x_min":104,"x_max":510,"o":"m 267 873 l 189 705 l 104 705 l 129 865 l 160 1058 l 297 1058 l 267 873 m 480 873 l 401 705 l 317 705 l 342 871 l 373 1058 l 510 1058 l 480 873 z "},"#":{"ha":773,"x_min":31,"x_max":820,"o":"m 406 278 l 294 278 l 193 0 l 71 0 l 172 278 l 31 278 l 54 393 l 213 393 l 284 589 l 140 589 l 163 705 l 326 705 l 429 987 l 550 987 l 448 705 l 562 705 l 664 987 l 785 987 l 683 705 l 820 705 l 797 589 l 641 589 l 570 393 l 710 393 l 687 278 l 528 278 l 427 0 l 305 0 l 406 278 m 335 393 l 448 393 l 519 589 l 406 589 l 335 393 z "},"$":{"ha":751,"x_min":37,"x_max":771,"o":"m 488 260 q 475 350 496 317 q 391 414 453 383 q 201 536 258 469 q 163 726 143 604 q 260 916 181 844 q 457 999 340 987 l 481 1145 l 586 1145 l 562 996 q 719 895 667 977 q 751 682 771 812 l 555 682 q 547 806 568 764 q 476 848 526 848 q 398 814 429 848 q 358 726 367 781 q 371 640 349 671 q 458 575 392 608 q 645 449 588 516 q 683 261 702 382 q 585 70 663 139 q 387 -12 507 1 l 366 -145 l 260 -145 l 281 -11 q 103 81 169 3 q 62 308 37 159 l 257 308 q 271 176 241 213 q 358 138 300 138 q 444 172 410 138 q 488 260 478 205 z "},"%":{"ha":960,"x_min":136,"x_max":910,"o":"m 164 798 q 246 946 182 890 q 406 1002 309 1002 q 541 943 496 1002 q 568 798 585 884 l 557 745 q 476 597 538 652 q 316 543 413 543 q 181 601 227 543 q 154 745 136 660 l 164 798 m 283 745 q 288 678 274 704 q 338 652 301 652 q 395 680 370 652 q 429 745 420 707 l 439 798 q 434 866 447 840 q 385 892 420 892 q 326 864 352 892 q 293 798 300 836 l 283 745 m 489 242 q 571 390 507 334 q 732 446 635 446 q 866 387 821 446 q 893 242 910 328 l 883 190 q 801 41 864 96 q 642 -14 739 -14 q 507 45 552 -14 q 479 190 461 104 l 489 242 m 608 190 q 614 123 599 149 q 663 96 630 96 q 723 122 700 96 q 754 190 745 149 l 764 242 q 759 310 772 283 q 710 336 745 336 q 651 308 677 336 q 618 242 625 280 l 608 190 m 254 74 l 170 125 l 773 897 l 857 846 l 254 74 z "},"&":{"ha":861,"x_min":14,"x_max":818,"o":"m 35 266 q 97 405 47 349 q 242 524 146 460 q 195 638 208 587 q 191 744 182 690 q 289 934 210 866 q 486 1002 368 1002 q 639 934 584 1002 q 680 773 694 867 q 630 651 669 704 q 528 555 591 597 l 465 513 l 599 301 q 646 386 627 340 q 673 481 665 431 l 818 481 q 769 307 802 384 q 682 171 736 231 l 789 0 l 568 0 l 532 58 q 414 3 473 21 q 292 -14 356 -14 q 86 64 159 -14 q 35 266 14 143 m 326 138 q 391 147 357 138 q 458 174 425 156 l 310 408 l 300 401 q 252 338 267 369 q 231 276 236 307 q 248 176 221 214 q 326 138 274 138 m 366 746 q 369 688 360 717 q 397 623 377 659 l 451 656 q 506 706 490 680 q 527 762 522 731 q 514 823 532 798 q 461 849 497 849 q 398 819 425 849 q 366 746 372 789 z "},"'":{"ha":214,"x_min":101,"x_max":292,"o":"m 263 876 l 186 684 l 101 684 l 130 865 l 161 1058 l 292 1058 l 263 876 z "},"(":{"ha":460,"x_min":52,"x_max":548,"o":"m 98 401 q 267 858 142 678 q 525 1093 391 1037 l 529 1093 l 548 994 q 377 780 456 928 q 262 403 298 632 l 259 385 q 252 4 220 146 q 355 -208 283 -138 l 305 -305 l 301 -304 q 120 -65 188 -250 q 95 387 52 120 l 98 401 z "},")":{"ha":460,"x_min":-58,"x_max":448,"o":"m 404 387 q 231 -66 361 117 q -33 -305 102 -250 l -37 -304 l -58 -208 q 112 7 33 -142 q 229 385 192 156 l 232 403 q 237 784 269 640 q 135 997 204 928 l 186 1093 l 191 1093 q 377 849 305 1039 q 407 401 448 660 l 404 387 z "},"*":{"ha":582,"x_min":106,"x_max":644,"o":"m 281 655 l 106 715 l 168 836 l 335 752 l 370 987 l 494 987 l 434 748 l 631 829 l 644 707 l 441 647 l 529 467 l 413 393 l 346 589 l 201 399 l 114 471 l 281 655 z "},"+":{"ha":709,"x_min":56,"x_max":720,"o":"m 498 551 l 720 551 l 686 380 l 465 380 l 408 99 l 224 99 l 280 380 l 56 380 l 90 551 l 314 551 l 368 818 l 552 818 l 498 551 z "},",":{"ha":324,"x_min":-64,"x_max":229,"o":"m 197 9 l 50 -205 l -64 -205 l 23 15 l 54 165 l 229 165 l 197 9 z "}}}
